<?xml version="1.0" encoding="UTF-8" standalone="no"?>
<!-- Created with Inkscape (http://www.inkscape.org/) -->

<svg
   version="1.1"
   id="svg18"
   width="1000"
   height="1000"
   viewBox="0 0 1000 1000"
   sodipodi:docname="gitlab-avatar.svg"
   xml:space="preserve"
   inkscape:version="1.2.1 (2ed6d7ae0b, 2022-08-22, custom)"
   xmlns:inkscape="http://www.inkscape.org/namespaces/inkscape"
   xmlns:sodipodi="http://sodipodi.sourceforge.net/DTD/sodipodi-0.dtd"
   xmlns="http://www.w3.org/2000/svg"
   xmlns:svg="http://www.w3.org/2000/svg"><defs
     id="defs22"><clipPath
       clipPathUnits="userSpaceOnUse"
       id="clipPath354"><g
         id="g358"
         transform="translate(-743,-384.8887)"><path
           d="M 0,750 H 750 V 0 H 0 Z"
           id="path356" /></g></clipPath><clipPath
       clipPathUnits="userSpaceOnUse"
       id="clipPath360"><g
         id="g364"
         transform="translate(-126.5278,-448.2505)"><path
           d="M 0,750 H 750 V 0 H 0 Z"
           id="path362" /></g></clipPath><clipPath
       clipPathUnits="userSpaceOnUse"
       id="clipPath366"><g
         id="g370"
         transform="translate(-7,-468.1924)"><path
           d="M 0,750 H 750 V 0 H 0 Z"
           id="path368" /></g></clipPath><clipPath
       clipPathUnits="userSpaceOnUse"
       id="clipPath372"><g
         id="g376"
         transform="translate(-420.3115,-471.1118)"><path
           d="M 0,750 H 750 V 0 H 0 Z"
           id="path374" /></g></clipPath></defs><sodipodi:namedview
     id="namedview20"
     pagecolor="#ffffff"
     bordercolor="#666666"
     borderopacity="1.0"
     inkscape:showpageshadow="2"
     inkscape:pageopacity="0.0"
     inkscape:pagecheckerboard="0"
     inkscape:deskcolor="#d1d1d1"
     showgrid="false"
     inkscape:zoom="0.30052038"
     inkscape:cx="14.974026"
     inkscape:cy="477.50505"
     inkscape:window-width="1852"
     inkscape:window-height="1016"
     inkscape:window-x="68"
     inkscape:window-y="27"
     inkscape:window-maximized="1"
     inkscape:current-layer="g26"><inkscape:page
       x="0"
       y="0"
       id="page24"
       width="1000"
       height="1000"
       inkscape:export-filename="../60c291c2/gitlab-avatar.png"
       inkscape:export-xdpi="12.288"
       inkscape:export-ydpi="12.288" /></sodipodi:namedview><g
     id="g26"
     inkscape:groupmode="layer"
     inkscape:label="Page 1"
     transform="matrix(1.3333333,0,0,-1.3333333,0,1000)"><g
       id="g382"
       transform="matrix(2.7781226,0,0,2.7781226,52.043803,-651.00968)"
       style="stroke:#ffffff;paint-order:stroke fill markers;stroke-width:9.4488273;stroke-dasharray:none;stroke-linejoin:miter"><g
         id="g40"
         transform="translate(7,468.1924)"
         clip-path="url(#clipPath366)"
         style="stroke:#ffffff;paint-order:stroke fill markers;stroke-width:9.4488273;stroke-dasharray:none;stroke-linejoin:miter"><path
           d="M 0,0 79.973,-46.216 V -216.564 L 0,-170.349 Z"
           style="fill:#4ca6dd;fill-opacity:1;fill-rule:nonzero;stroke:#ffffff;paint-order:stroke fill markers;stroke-width:9.4488273;stroke-dasharray:none;stroke-linejoin:miter"
           id="path42" /></g><g
         id="g44"
         transform="translate(126.5278,448.2505)"
         clip-path="url(#clipPath360)"
         style="stroke:#ffffff;paint-order:stroke fill markers;stroke-width:9.4488273;stroke-dasharray:none;stroke-linejoin:miter"><path
           d="M 0,0 -86.881,50.122 V 15.296 l 59.086,-34.128 V -123.105 L 0,-139.018 c 17.229,-9.95 31.291,-4.111 31.291,13.24 v 76.437 C 31.291,-32.113 17.229,-9.909 0,0"
           style="fill:#2c91d0;fill-opacity:1;fill-rule:nonzero;stroke:#ffffff;paint-order:stroke fill markers;stroke-width:9.4488273;stroke-dasharray:none;stroke-linejoin:miter"
           id="path46" /></g></g><g
       id="path402"
       transform="matrix(3.0792881,0,0,3.0792881,-445.76824,-673.65965)"
       style="stroke:#ffffff;stroke-width:5.6019443;stroke-dasharray:none;paint-order:stroke fill markers"><path
         style="color:#000000;fill:#000000;stroke:#ffffff;stroke-width:5.6019443;stroke-dasharray:none;paint-order:stroke fill markers"
         d="m 327.92499,281.51349 h 12.84639 m -28.13972,0 h 12.8464 m -27.83386,0 h 12.8464 m -27.83385,0 h 12.54052 m -27.83385,0 h 12.8464 m 2.44693,14.06986 h 12.54052 m 2.44693,0 h 12.8464 m 2.14106,0 h 12.8464 m -12.8464,14.06986 h 12.8464"
         id="path525" /><path
         id="path527"
         style="color:#000000;fill:#066da5;stroke:#ffffff;stroke-width:5.6019443;stroke-dasharray:none;paint-order:stroke fill markers"
         d="m 312.63136,315.46436 v -11.62207 h 12.84668 v 11.62207 z m -29.9751,-14.06982 V 289.771 h 12.54052 v 11.62354 z m 14.98828,0 V 289.771 h 12.84521 v 11.62354 z m 14.98682,0 V 289.771 h 12.84668 v 11.62354 z m 41.59863,-3.0586 c 0,0 -8.87095,-10.70452 -2.44775,-22.6333 -1.8352,-0.9176 -4.89394,-2.1416 -9.48194,-2.1416 h -84.11279 c -1.52933,-5.81146 -1.52935,-44.35107 40.68017,-44.35107 30.28076,0 52.91432,14.07043 63.61963,39.76318 15.90505,-1.22347 19.27002,11.92822 19.27002,11.92822 0,0 -5.50521,5.19995 -16.82226,3.36475 -1.22346,8.87012 -10.70508,14.06982 -10.70508,14.06982 z m -86.8667,-11.01123 v -11.62353 h 12.84521 v 11.62353 z m 15.29297,0 v -11.62353 h 12.54052 v 11.62353 z m 14.98828,0 v -11.62353 h 12.84521 v 11.62353 z m 14.98682,0 v -11.62353 h 12.84668 v 11.62353 z m 15.29443,0 V 275.70118 H 340.771 v 11.62353 z" /></g></g></svg>
